# xmcd
#
# Track frame offsets:
#	183
#	21623
#	40553
#	56103
#	77863
#	96505
#	111358
#	131190
#	145905
#	158243
#	172398
#	186338
#	203635
#	215815
#
# Disc length: 3004 seconds
#
# Revision: 0
# Processed by: cddbd v1.5.2PL0 Copyright (c) Steve Scherf et al.
# Submitted via: EasyCDDAExtractor 12.0.1.1
#
DISCID=e00bba0e
DTITLE=De Dijk - De beste Van
DYEAR=1994
DGENRE=
TTITLE0=Binnen Zonder Kloppen
TTITLE1=Wat Nog Meer
TTITLE2=De Cowboy Met De Witte Hoed
TTITLE3=Veel Nacht Met Weinig Maan
TTITLE4=Nooit Meer Terug
TTITLE5=Groot Hart
TTITLE6=Dit Bittere Eind
TTITLE7=Je Zou Me Eens Moeten Zien
TTITLE8=Elke Keer
TTITLE9=Elke Dag Een Nieuwe Hoed
TTITLE10=Nergens Zonder Haar
TTITLE11=Bloedend Hard (live)
TTITLE12=Zoveel Ik Kan (live)
TTITLE13=Koud En Eenzaam (live)
EXTD=
EXTT0=
EXTT1=
EXTT2=
EXTT3=
EXTT4=
EXTT5=
EXTT6=
EXTT7=
EXTT8=
EXTT9=
EXTT10=
EXTT11=
EXTT12=
EXTT13=
PLAYORDER=
